<?xml version="1.0" standalone="no"?>
<!DOCTYPE svg PUBLIC "-//W3C//DTD SVG 20010904//EN"
 "http://www.w3.org/TR/2001/REC-SVG-20010904/DTD/svg10.dtd">
<svg version="1.0" xmlns="http://www.w3.org/2000/svg"
 width="638.000000pt" height="638.000000pt" viewBox="0 0 638.000000 638.000000"
 preserveAspectRatio="xMidYMid meet">
<metadata>
Created by potrace 1.11, written by Peter Selinger 2001-2013
</metadata>
<g transform="translate(0.000000,638.000000) scale(0.100000,-0.100000)"
fill="#000000" stroke="none">
<path d="M2960 4982 c0 -4 16 -14 35 -22 19 -8 35 -17 35 -21 0 -4 12 -12 28
-17 102 -37 256 -227 292 -362 37 -137 37 -133 38 -1554 0 -765 1 -1397 1
-1403 1 -9 25 -13 86 -13 74 0 85 2 86 18 0 9 1 631 1 1382 1 1420 0 1454 -41
1573 -38 108 -117 219 -207 288 -29 22 -144 79 -161 79 -7 0 -13 5 -13 12 0 6
-3 9 -6 5 -3 -3 -23 0 -43 8 -21 7 -54 15 -73 18 -20 2 -41 8 -47 11 -6 4 -11
3 -11 -2z"/>
<path d="M2713 4963 c9 -11 17 -25 17 -31 0 -7 4 -12 9 -12 10 0 47 -82 68
-150 16 -53 31 -127 39 -190 2 -25 7 -63 11 -85 3 -22 7 -683 7 -1470 l2
-1430 77 0 c42 0 77 -4 77 -10 0 -6 3 -6 9 0 9 9 12 52 11 118 -1 9 -1 37 -1
62 0 25 0 51 0 58 0 6 0 59 0 117 0 58 0 112 0 120 0 8 0 107 0 220 0 113 0
212 0 220 -1 8 0 35 0 60 0 25 1 52 0 60 0 8 0 98 0 200 0 102 0 192 0 200 0
117 1 282 2 305 0 17 1 37 0 45 0 8 0 44 0 80 0 36 0 88 -1 115 0 28 0 64 1
80 0 17 1 37 0 45 0 8 0 44 0 80 0 36 0 88 -1 115 0 28 0 64 1 80 0 17 1 37 0
45 0 17 0 119 1 193 0 26 -2 50 -5 53 -2 3 -1 20 3 39 4 19 5 37 2 40 -3 3 -7
31 -8 63 -7 136 -35 247 -90 352 -39 75 -145 179 -224 220 -24 13 -25 12 -7
-7z"/>
<path d="M2835 4960 c59 -39 160 -156 198 -231 21 -41 39 -81 41 -89 2 -8 6
-22 9 -30 6 -18 25 -100 34 -150 3 -19 6 -672 7 -1450 l2 -1415 87 -3 c85 -3
87 -2 87 20 3 170 -2 2770 -4 2788 -2 14 -7 46 -10 71 -12 101 -82 249 -150
319 -78 80 -170 139 -275 175 -57 20 -62 19 -26 -5z"/>
<path d="M1935 4202 l-30 -3 2 -1191 c1 -1116 3 -1259 19 -1348 9 -50 48 -152
80 -206 23 -40 114 -138 156 -169 53 -39 199 -101 263 -111 17 -3 45 -9 64
-14 42 -11 38 -8 -34 31 -129 69 -218 153 -280 264 -32 56 -79 175 -70 175 2
0 -1 15 -7 33 -8 22 -12 413 -13 1280 -1 686 -4 1250 -7 1253 -6 6 -102 10
-143 6z"/>
<path d="M2187 4202 c-16 -3 -17 -96 -17 -1226 0 -1387 -3 -1332 75 -1491 28
-59 60 -106 92 -137 68 -67 106 -98 121 -98 6 0 12 -3 12 -8 0 -4 19 -16 43
-26 94 -41 137 -55 137 -46 0 6 -4 10 -9 10 -16 0 -101 82 -145 139 -47 62
-98 162 -112 224 -1 4 -2 8 -4 10 -5 6 -20 89 -27 152 -4 33 -7 608 -8 1277
l0 1218 -30 1 c-16 0 -48 1 -71 2 -22 1 -48 1 -57 -1z"/>
<path d="M2452 4202 l-23 -3 4 -1267 c2 -697 6 -1278 9 -1292 41 -181 87 -278
178 -368 36 -37 86 -78 111 -91 l44 -24 -26 34 c-53 71 -101 195 -115 297 -3
26 -8 56 -10 67 -14 67 -17 263 -18 1394 l-1 1253 -65 2 c-36 0 -75 0 -88 -2z"/>
<path d="M3829 4205 c-1 0 -3 -547 -4 -1215 -2 -1087 -6 -1356 -19 -1427 -3
-11 -7 -37 -10 -57 -9 -58 -24 -118 -41 -166 -15 -44 -55 -130 -65 -140 -3 -3
-12 -14 -20 -24 -14 -18 -14 -19 10 -6 35 18 109 77 144 114 26 28 96 129 96
139 0 3 6 20 14 38 8 19 15 37 16 41 1 4 6 22 11 40 5 18 12 47 15 63 3 17 7
41 10 55 12 51 11 2540 0 2540 -22 1 -156 5 -157 5z"/>
<path d="M4105 4202 c-21 -3 -21 -3 -22 -1220 0 -669 -3 -1244 -7 -1276 -9
-86 -30 -171 -57 -231 -5 -11 -13 -31 -19 -45 -26 -64 -105 -165 -175 -223
-69 -58 -54 -56 82 9 67 32 111 62 162 111 39 37 71 71 71 75 0 4 11 23 24 43
23 34 66 148 72 190 1 11 7 42 12 69 6 30 10 523 10 1273 l1 1223 -22 1 c-12
0 -42 1 -67 2 -25 1 -54 1 -65 -1z"/>
<path d="M4349 4190 c-1 -8 -2 -562 -3 -1230 -2 -668 -6 -1237 -10 -1265 -5
-27 -13 -56 -18 -62 -6 -7 -8 -13 -5 -13 10 0 -15 -76 -50 -147 -53 -111 -160
-214 -298 -287 -61 -32 -38 -34 65 -6 226 62 372 189 443 386 36 100 49 202
47 364 0 36 -1 72 0 80 0 8 0 62 -1 120 0 58 0 112 0 120 0 8 0 98 0 200 0
102 0 192 1 200 0 8 0 62 -1 120 0 58 0 112 0 120 2 42 2 228 0 236 -1 5 0 14
1 19 1 6 1 37 0 70 0 33 -1 67 -1 75 1 8 1 62 0 120 0 58 0 112 0 120 0 8 0
98 0 200 0 102 0 192 1 200 2 95 -1 264 -5 268 -2 3 -41 5 -85 6 -64 1 -80 -2
-81 -14z"/>
</g>
</svg>
